<?xml version="1.0" encoding="UTF-8" standalone="no"?>
<!-- Created with Inkscape (http://www.inkscape.org/) -->

<svg
   xmlns:dc="http://purl.org/dc/elements/1.1/"
   xmlns:cc="http://creativecommons.org/ns#"
   xmlns:rdf="http://www.w3.org/1999/02/22-rdf-syntax-ns#"
   xmlns:svg="http://www.w3.org/2000/svg"
   xmlns="http://www.w3.org/2000/svg"
   xmlns:sodipodi="http://sodipodi.sourceforge.net/DTD/sodipodi-0.dtd"
   xmlns:inkscape="http://www.inkscape.org/namespaces/inkscape"
   width="739px"
   height="363px"
   viewBox="0 0 739 363"
   version="1.1"
   id="SVGRoot"
   inkscape:version="0.92.5 (2060ec1f9f, 2020-04-08)"
   sodipodi:docname="VFC logo.svg">
  <defs
     id="defs3745" />
  <sodipodi:namedview
     id="base"
     pagecolor="#ffffff"
     bordercolor="#666666"
     borderopacity="1.0"
     inkscape:pageopacity="0.0"
     inkscape:pageshadow="2"
     inkscape:zoom="1.3309654"
     inkscape:cx="332.98901"
     inkscape:cy="186.24809"
     inkscape:document-units="px"
     inkscape:current-layer="layer1"
     showgrid="false"
     inkscape:window-width="1920"
     inkscape:window-height="1001"
     inkscape:window-x="-9"
     inkscape:window-y="-9"
     inkscape:window-maximized="1"
     showguides="true"
     inkscape:guide-bbox="true">
    <sodipodi:guide
       position="327.30957,114.88579"
       orientation="0,1"
       id="guide825"
       inkscape:locked="false" />
    <sodipodi:guide
       position="28.426888,351.15669"
       orientation="0,1"
       id="guide827"
       inkscape:locked="false" />
  </sodipodi:namedview>
  <metadata
     id="metadata3748">
    <rdf:RDF>
      <cc:Work
         rdf:about="">
        <dc:format>image/svg+xml</dc:format>
        <dc:type
           rdf:resource="http://purl.org/dc/dcmitype/StillImage" />
        <dc:title />
      </cc:Work>
    </rdf:RDF>
  </metadata>
  <g
     inkscape:label="Layer 1"
     inkscape:groupmode="layer"
     id="layer1">
    <path
       style="fill:#ffffff;fill-opacity:1;stroke:none;stroke-width:0.96031314px;stroke-linecap:butt;stroke-linejoin:miter;stroke-opacity:1"
       d="m 28.426888,11.843309 c 0,0 -34.1607306,4.129312 -14.640308,37.914647 19.52041,33.785348 118.24868,209.469104 118.24868,209.469104 0,0 7.13246,13.51413 20.6466,12.76334 l -31.90838,51.80418 c -8.13351,12.76334 -1.62671,29.28063 15.0157,29.28063 h 111.49161 c 0,0 22.11751,0 32.80646,-22.73215 l 47.22232,-82.22885 34.44959,0 c 0,0 16.02165,104.961 135.75948,104.961 0,0 145.31424,11.43189 217.88662,-145.89744 0,0 8.6208,-21.34544 -22.21916,-21.34544 H 579.94563 c 0,0 -18.17049,-1.73665 -25.96158,7.07068 -7.7911,8.80732 -16.42906,7.7911 -16.42906,7.7911 0,0 -17.96833,-1.3322 -8.97669,-22.52644 4.21422,-9.93336 14.73151,-15.34379 23.37329,-15.07407 9.9938,0.31192 12.5335,9.31545 12.5335,9.31545 0,0 1.69372,5.92798 11.51727,5.92798 h 123.98007 c 0,0 28.76911,3.83745 29.27723,-28.00443 0,0 15.36435,-138.489291 -154.22127,-138.489291 z"
       id="path3795"
       inkscape:connector-curvature="0"
       sodipodi:nodetypes="csccccccccccscscsscccccc" />
    <path
       style="fill:#dc0000;fill-opacity:1;stroke:none;stroke-width:0.96031314px;stroke-linecap:butt;stroke-linejoin:miter;stroke-opacity:1"
       d="M 115.54727,23.424624 H 28.261717 c 0,0 -7.273792,2.382465 -7.701657,8.800515 -0.427878,6.418062 3.422957,10.054952 3.422957,10.054952 L 144.00063,252.57834 c 0,0 5.34838,7.05985 10.05496,7.05985 4.70657,0 7.9156,-1.92542 9.62707,-5.56231 1.71149,-3.6369 39.79195,-69.95679 39.79195,-69.95679 0,0 4.92051,-5.34837 0.64179,-13.05004 -4.2787,-7.70167 -80.22567,-140.341451 -80.22567,-140.341451 0,0 -2.99509,-7.302975 -8.34346,-7.302975 z"
       id="path3771"
       inkscape:connector-curvature="0" />
    <path
       style="fill:#000096;fill-opacity:1;stroke:none;stroke-width:0.96031314px;stroke-linecap:butt;stroke-linejoin:miter;stroke-opacity:1"
       d="m 148.70721,23.424624 c 0,0 -7.70167,2.168519 -7.9156,9.656257 0,0 0.21393,2.353283 3.20902,8.343468 2.9951,5.990185 62.04119,108.251181 62.04119,108.251181 0,0 3.42297,4.92051 8.55741,4.70658 5.13445,-0.21393 7.70166,-2.78116 9.19921,-5.77625 1.49754,-2.99509 62.683,-109.748726 62.683,-109.748726 0,0 2.78115,-3.821653 0.42787,-9.627088 -2.3533,-5.805422 -8.12954,-5.805422 -10.9107,-5.805422 -2.78116,0 -127.2914,0 -127.2914,0 z"
       id="path3773"
       inkscape:connector-curvature="0" />
    <path
       style="fill:#009601;fill-opacity:1;stroke:none;stroke-width:0.96031314px;stroke-linecap:butt;stroke-linejoin:miter;stroke-opacity:1"
       d="m 318.14383,23.424624 c 0,0 -6.84593,-0.612628 -12.62217,9.014447 -5.77624,9.627088 -169.00875,295.872289 -169.00875,295.872289 -1.60176,4.41518 2.05539,11.76644 7.27379,11.76644 h 105.17781 c 0,0 9.94263,-0.94666 15.77674,-11.1358 l 49.17622,-86.86729 c 0,0 4.26961,-7.73867 12.54199,-7.73867 8.27238,0 89.92874,0 89.92874,0 0,0 7.47183,0.5337 11.74144,-7.20497 4.26961,-7.73868 40.56133,-72.58344 40.56133,-72.58344 0,0 2.66851,-8.27237 -7.20496,-8.27237 -9.8735,0 -87.5271,0 -87.5271,0 0,0 -5.60387,0.52577 -2.55225,-4.70556 3.05161,-5.23134 14.09553,-24.26758 14.09553,-24.26758 0,0 1.45315,-4.79539 8.7189,-4.79539 h 110.43926 c 0,0 6.8298,0.72657 10.60799,-7.41105 3.77818,-8.137646 38.79906,-68.007341 38.79906,-68.007341 0,0 4.06882,-13.663715 -9.30016,-13.663715 -13.36896,0 -226.62341,0 -226.62341,0 z"
       id="path3777"
       inkscape:connector-curvature="0"
       sodipodi:nodetypes="cscc" />
    <path
       style="fill:#000096;fill-opacity:1;stroke:none;stroke-width:0.96031314px;stroke-linecap:butt;stroke-linejoin:miter;stroke-opacity:1"
       d="m 569.50083,28.291261 c 0,0 1.84803,-4.866637 11.08812,-4.866637 9.24011,0 75.15285,-4.168136 113.55061,48.808465 16.70063,21.970921 21.90247,49.280551 20.53356,82.544921 0,0 10e-6,9.57102 -9.65077,9.57102 H 586.54369 c 0,0 -5.54406,0.49044 -7.39208,-5.25896 -1.84803,-5.7494 -10.26679,-11.90947 -24.64028,-12.32015 -14.3735,-0.41067 -45.58451,14.57884 -46.61119,43.53116 0,0 -0.82134,26.4883 28.33633,26.4883 0,0 16.75569,0.90316 31.37568,-13.22357 0,0 2.83251,-4.16909 9.69143,-4.16909 h 117.0773 c 0,0 7.77876,0.92556 4.13247,10.28437 C 668.6138,281.3446 587.18008,340.0778 501.3708,340.0778 c -55.50456,0.81654 -106.39051,-27.78028 -122.02904,-87.24899 0,0 -1.31951,-4.7146 5.94809,-4.7146 7.2676,0 32.33342,0 32.33342,0 0,0 9.04741,1.48319 15.12847,-9.93735 6.08106,-11.4205 50.72489,-88.84271 50.72489,-88.84271 0,0 4.30123,-10.67892 -8.60246,-10.67892 -12.9037,0 -81.72344,0 -81.72344,0 0,0 -5.04282,-0.59328 -2.37309,-5.33947 2.66972,-4.74619 5.63609,-10.08566 5.63609,-10.08566 0,0 1.18655,-2.81805 6.97098,-2.81805 5.78441,0 107.23419,0 107.23419,0 0,0 7.2676,-0.44495 12.31043,-9.34405 5.04283,-8.89911 46.5715,-82.776739 46.5715,-82.776739 z"
       id="path3785"
       inkscape:connector-curvature="0"
       sodipodi:nodetypes="csccsccscccccccc" />
  </g>
</svg>
